<?xml version="1.0" encoding="utf-8"?>
<!-- Svg Vector Icons : http://www.onlinewebfonts.com/icon -->
<!DOCTYPE svg PUBLIC "-//W3C//DTD SVG 1.1//EN" "http://www.w3.org/Graphics/SVG/1.1/DTD/svg11.dtd">
<svg version="1.1" xmlns="http://www.w3.org/2000/svg" xmlns:xlink="http://www.w3.org/1999/xlink" x="0px" y="0px" viewBox="0 0 1000 1000" enable-background="new 0 0 1000 1000" xml:space="preserve" fill="#688a08">
<metadata> Svg Vector Icons : http://www.onlinewebfonts.com/icon </metadata>
<g><g transform="translate(0.000000,511.000000) scale(0.100000,-0.100000)"><path d="M4659,3363.3c-63.2-38.3-132.1-107.2-134-134c0-7.7,40.2-24.9,91.9-38.3c113-32.5,363.8-32.5,497.8,0l101.5,24.9l-44,47.9C5053.5,3393.9,4793.1,3443.7,4659,3363.3z"/><path d="M4505.9,3058.9c-404-51.7-792.7-206.8-999.5-400.2c-67-63.2-135.9-139.8-155.1-172.3l-34.5-59.4h1551c1150.8,0,1552.9,5.7,1552.9,21.1c0,46-281.5,296.8-411.7,365.7c-172.3,90-434.6,178.1-651,216.4C5147.3,3068.4,4701.2,3081.8,4505.9,3058.9z"/><path d="M3146.4,2199.1c-243.2-47.9-451.9-189.6-1110.6-758.2C1852,1282,1691.2,1146,1679.7,1138.4c-30.6-19.1-247,124.5-371.5,245.1c-57.4,57.4-130.2,114.9-162.8,126.4c-38.3,17.2-214.5,26.8-551.4,32.5l-494,7.7l13.4-55.5c38.3-164.7,243.2-752.5,371.5-1078c610.8-1522.2,1371-2724.7,2058.4-3245.5c155.1-118.7,471-270,612.7-294.9c287.2-51.7,2221.1-78.5,2720.9-40.2c687.4,53.6,1039.7,147.4,1309.7,348.5c199.1,149.3,465.3,427,762.1,800.4c455.7,568.7,518.9,629.9,1085.7,1049.3c237.4,176.2,453.8,386.8,562.9,545.7c95.7,141.7,204.9,386.8,248.9,568.7c180,725.7-95.7,1365.2-754.4,1740.5c-292.9,168.5-765.9,289.1-1122,289.1c-250.8,0-739.1-95.7-773.6-153.2c-15.3-24.9,189.6-237.4,310.2-317.9c174.2-114.9,289.1-141.7,624.2-141.7c160.8,0,329.3-9.6,375.3-21.1c157-36.4,294.9-118.7,444.2-266.1c166.6-166.6,250.9-315.9,296.8-536.1c74.7-356.1-74.6-850.2-346.6-1143.1c-135.9-149.4-260.4-220.2-404-231.7l-97.6-7.7v235.5c0,273.8-21.1,407.8-113,689.3c-231.7,721.9-903.7,1537.5-1501.2,1824.8l-162.8,78.5l-296.8,5.7l-296.8,5.8l1.9-455.7c2-250.8,3.9-488.3,5.8-526.6l1.9-68.9l181.9-61.3l180-59.4l-164.7-482.5c-90-266.2-166.6-486.3-170.4-490.2c-7.7-9.6-834.8,266.2-855.9,285.3c-11.5,9.6,298.7,949.7,321.7,974.6c5.8,3.8,82.4-19.1,172.3-51.7l162.8-57.4v495.9v495.9h-693.1c-383,0-974.6,3.8-1317.4,9.6C3512.1,2210.6,3194.2,2206.8,3146.4,2199.1z"/></g></g>
</svg>